<?xml version="1.0" encoding="utf-8"?>
<!-- Generator: Adobe Illustrator 24.1.2, SVG Export Plug-In . SVG Version: 6.00 Build 0)  -->
<svg version="1.1" id="Layer_1" xmlns="http://www.w3.org/2000/svg" xmlns:xlink="http://www.w3.org/1999/xlink" x="0px" y="0px"
	 width="2940px" height="1960px" viewBox="0 0 2940 1960" style="enable-background:new 0 0 2940 1960;" xml:space="preserve">
<style type="text/css">
	.st0{fill:#FFFFFF;}
	.st1{fill:none;stroke:#000000;stroke-width:2;stroke-linecap:round;stroke-miterlimit:20;}
	.st2{fill:none;stroke:#000000;stroke-width:18.0052;stroke-linecap:round;stroke-miterlimit:24.4;}
	.st3{fill:none;stroke:#000000;stroke-width:18.0052;stroke-linecap:round;stroke-miterlimit:20;}
</style>
<g>
	<g transform="scale(2,2)">
		<rect class="st0" width="1470" height="980"/>
	</g>
	<g transform="scale(2,2)">
		<rect class="st1" width="1470" height="980"/>
		<path class="st2" d="M735,261c9.6,0,4.8,0,14.4,0c1.1,0,5.5-1.6,6.3-2.9c1.6-2.4,3-6.5,4.6-10.8c1.8-4.9,5.6-11.4,9.4-14.4
			c0.7-0.5,3.2-2.1,3.9-2.4c10.3-3.8,20.1-8.1,30.1-8.5c4.9-0.2,21.3-0.3,24.5,0.5c4.5,1,7.3,11.3,5.1,16.1
			c-1.5,3.3-14.8,5.1-18.4,5.5c-4.5,0.5-8.6,2.6-12.7,4.6c-0.8,0.4-1.7,0.9-2.3,1.6c-0.5,0.7-0.8,1.5-1,2.3
			c-1.5,6.1-0.7,1.8-2.8,7.8c-2.2,6.1-7.1,10.7-10.7,16.1"/>
		<path class="st2" d="M796.9,260c22.6,0.8,47.8-1.2,70.3-3.6c4.3-0.5,8.6-1,12.9-0.2c4.2,0.8,10.5,4.6,12.5,8.4
			c3.4,6.6-1.5,14.4-9.5,16c-8,1.6-33,6.8-50.6,8c-9.8,0.3-11.7,3.1-11.3,7.7c0.1,1.5,0.3,3.1,1.3,4.2c1.5,1.8,4.2,1.9,6.5,1.9
			c19.9-0.5,70-5.4,76-2.9s9.6,15.3,3.7,20.4c-5.9,5.1-54.6,3.3-75.6,6.9c-6.9,1.2-3.7,7.3-1.9,9.2c5.1,5.3,14.8,4.4,22.1,3.5
			c11.2-1.3,21-1.1,33.9-0.7c12.9,0.3,18.3,18.4,5.1,20.9c-17.3,0.8-35.8,1.2-53,1.2c-3.8,0-7.7,0-11.2,1.6
			c-3.4,1.6-2.4,10.9,0.7,11.9c3.1,1,6.4,1,9.6,1c8.6,0,17.2,0.7,25.6,2.1c4.3,0.7,9,1.9,11.3,5.5c2,3.2,2.8,12.5-0.3,15.6
			s-24.2,3.1-33.8,2.3c-16-1.3-32.2-0.8-48.2,0.2c-4,0.3-8,0.5-11.9-0.1c-7.4-1.3-13.9-6.2-18.5-12.3c-0.9-1.2-1.7-5-3-5.7
			c-1.4-0.8-13.2-0.4-24.5,0"/>
	</g>
	<g transform="matrix(2,0,0,2,126,140) translate(504,168)">
		<path class="st3" d="M168,145C87.9,145,23,80.1,23,0"/>
		<path class="st3" d="M168,23c-12.7,0-23-10.3-23-23"/>
	</g>
	<g transform="matrix(2,0,0,2,126,140) translate(504,0)">
		<path class="st3" d="M0,23c80.1,0,145,64.9,145,145"/>
		<path class="st3" d="M0,145c12.7,0,23,10.3,23,23"/>
	</g>
	<g transform="matrix(2,0,0,2,126,140) translate(336,0)">
		<line class="st3" x1="0" y1="23" x2="168" y2="23"/>
		<line class="st3" x1="0" y1="145" x2="168" y2="145"/>
	</g>
	<g transform="matrix(2,0,0,2,126,140) translate(168,0)">
		<line class="st3" x1="0" y1="23" x2="23" y2="23"/>
		<line class="st3" x1="0" y1="145" x2="23" y2="145"/>
		<line class="st3" x1="145" y1="23" x2="168" y2="23"/>
		<line class="st3" x1="145" y1="145" x2="168" y2="145"/>
		<path class="st2" d="M43.5,84C84,88.9,84,145,145,145"/>
		<path class="st2" d="M83.8,113c-12,16-27,32-60.8,32"/>
		<path class="st2" d="M124.5,84.6C84,79.7,84,23,23,23"/>
		<path class="st2" d="M84.4,55.5c12-16,26.8-32.5,60.6-32.5"/>
	</g>
	<g transform="matrix(2,0,0,2,126,140)">
		<path class="st3" d="M23,168C23,87.9,87.9,23,168,23"/>
		<path class="st3" d="M145,168c0-12.7,10.3-23,23-23"/>
	</g>
	<g transform="matrix(2,0,0,2,126,140) translate(0,168)">
		<line class="st3" x1="23" y1="0" x2="23" y2="168"/>
		<line class="st3" x1="145" y1="0" x2="145" y2="168"/>
	</g>
	<g transform="matrix(2,0,0,2,126,140) translate(0,336)">
		<path class="st3" d="M168,145C87.9,145,23,80.1,23,0"/>
		<path class="st3" d="M168,23c-12.7,0-23-10.3-23-23"/>
	</g>
	<g transform="matrix(2,0,0,2,126,140) translate(168,336)">
		<path class="st3" d="M145,0c0,80.1-64.9,145-145,145"/>
		<path class="st3" d="M23,0c0,12.7-10.3,23-23,23"/>
	</g>
	<g transform="matrix(2,0,0,2,126,140) translate(168,168)">
		<path class="st3" d="M23,168C23,87.9,87.9,23,168,23"/>
		<path class="st3" d="M145,168c0-12.7,10.3-23,23-23"/>
	</g>
	<g transform="matrix(2,0,0,2,126,140) translate(336,168)">
		<path class="st3" d="M0,23c80.1,0,145,64.9,145,145"/>
		<path class="st3" d="M0,145c12.7,0,23,10.3,23,23"/>
	</g>
	<g transform="matrix(2,0,0,2,126,140) translate(336,336)">
		<line class="st3" x1="23" y1="0" x2="23" y2="168"/>
		<line class="st3" x1="145" y1="0" x2="145" y2="168"/>
	</g>
	<g transform="matrix(2,0,0,2,126,140) translate(336,504)">
		<path class="st3" d="M145,0c0,80.1-64.9,145-145,145"/>
		<path class="st3" d="M23,0c0,12.7-10.3,23-23,23"/>
	</g>
	<g transform="matrix(2,0,0,2,126,140) translate(168,504)">
		<line class="st3" x1="0" y1="23" x2="23" y2="23"/>
		<line class="st3" x1="0" y1="145" x2="23" y2="145"/>
		<line class="st3" x1="145" y1="23" x2="168" y2="23"/>
		<line class="st3" x1="145" y1="145" x2="168" y2="145"/>
		<path class="st2" d="M43.5,84C84,88.9,84,145,145,145"/>
		<path class="st2" d="M83.8,113c-12,16-27,32-60.8,32"/>
		<path class="st2" d="M124.5,84.6C84,79.7,84,23,23,23"/>
		<path class="st2" d="M84.4,55.5c12-16,26.8-32.5,60.6-32.5"/>
	</g>
	<g transform="matrix(2,0,0,2,126,140) translate(0,504)">
		<path class="st3" d="M23,168C23,87.9,87.9,23,168,23"/>
		<path class="st3" d="M145,168c0-12.7,10.3-23,23-23"/>
	</g>
	<g transform="matrix(2,0,0,2,126,140) translate(0,672)">
		<path class="st3" d="M168,145C87.9,145,23,80.1,23,0"/>
		<path class="st3" d="M168,23c-12.7,0-23-10.3-23-23"/>
	</g>
	<g transform="matrix(2,0,0,2,126,140) translate(168,672)">
		<line class="st3" x1="0" y1="23" x2="168" y2="23"/>
		<line class="st3" x1="0" y1="145" x2="168" y2="145"/>
	</g>
	<g transform="matrix(2,0,0,2,126,140) translate(336,672)">
		<line class="st3" x1="0" y1="23" x2="168" y2="23"/>
		<line class="st3" x1="0" y1="145" x2="168" y2="145"/>
	</g>
	<g transform="matrix(2,0,0,2,126,140) translate(504,672)">
		<line class="st3" x1="0" y1="23" x2="168" y2="23"/>
		<line class="st3" x1="0" y1="145" x2="168" y2="145"/>
	</g>
	<g transform="matrix(2,0,0,2,126,140) translate(672,672)">
		<path class="st3" d="M145,0c0,80.1-64.9,145-145,145"/>
		<path class="st3" d="M23,0c0,12.7-10.3,23-23,23"/>
	</g>
	<g transform="matrix(2,0,0,2,126,140) translate(672,504)">
		<path class="st3" d="M0,23c80.1,0,145,64.9,145,145"/>
		<path class="st3" d="M0,145c12.7,0,23,10.3,23,23"/>
	</g>
	<g transform="matrix(2,0,0,2,126,140) translate(504,504)">
		<path class="st3" d="M168,145C87.9,145,23,80.1,23,0"/>
		<path class="st3" d="M168,23c-12.7,0-23-10.3-23-23"/>
	</g>
	<g transform="matrix(2,0,0,2,126,140) translate(504,336)">
		<path class="st3" d="M23,168C23,87.9,87.9,23,168,23"/>
		<path class="st3" d="M145,168c0-12.7,10.3-23,23-23"/>
	</g>
	<g transform="matrix(2,0,0,2,126,140) translate(672,336)">
		<line class="st3" x1="0" y1="23" x2="23" y2="23"/>
		<line class="st3" x1="0" y1="145" x2="23" y2="145"/>
		<line class="st3" x1="145" y1="23" x2="168" y2="23"/>
		<line class="st3" x1="145" y1="145" x2="168" y2="145"/>
		<path class="st2" d="M43.5,84C84,88.9,84,145,145,145"/>
		<path class="st2" d="M83.8,113c-12,16-27,32-60.8,32"/>
		<path class="st2" d="M124.5,84.6C84,79.7,84,23,23,23"/>
		<path class="st2" d="M84.4,55.5c12-16,26.8-32.5,60.6-32.5"/>
	</g>
	<g transform="matrix(2,0,0,2,126,140) translate(840,336)">
		<line class="st3" x1="0" y1="23" x2="168" y2="23"/>
		<line class="st3" x1="0" y1="145" x2="168" y2="145"/>
	</g>
	<g transform="matrix(2,0,0,2,126,140) translate(1008,336)">
		<path class="st3" d="M145,0c0,80.1-64.9,145-145,145"/>
		<path class="st3" d="M23,0c0,12.7-10.3,23-23,23"/>
	</g>
	<g transform="matrix(2,0,0,2,126,140) translate(1008,168)">
		<path class="st3" d="M0,23c80.1,0,145,64.9,145,145"/>
		<path class="st3" d="M0,145c12.7,0,23,10.3,23,23"/>
	</g>
	<g transform="matrix(2,0,0,2,126,140) translate(840,168)">
		<path class="st3" d="M168,145C87.9,145,23,80.1,23,0"/>
		<path class="st3" d="M168,23c-12.7,0-23-10.3-23-23"/>
	</g>
	<g transform="matrix(2,0,0,2,126,140) translate(840,0)">
		<path class="st3" d="M23,168C23,87.9,87.9,23,168,23"/>
		<path class="st3" d="M145,168c0-12.7,10.3-23,23-23"/>
	</g>
	<g transform="matrix(2,0,0,2,126,140) translate(1008,0)">
		<line class="st3" x1="0" y1="23" x2="168" y2="23"/>
		<line class="st3" x1="0" y1="145" x2="168" y2="145"/>
	</g>
	<g transform="matrix(2,0,0,2,126,140) translate(1176,0)">
		<path class="st3" d="M0,23c80.1,0,145,64.9,145,145"/>
		<path class="st3" d="M0,145c12.7,0,23,10.3,23,23"/>
	</g>
	<g transform="matrix(2,0,0,2,126,140) translate(1176,168)">
		<line class="st3" x1="23" y1="0" x2="23" y2="23"/>
		<line class="st3" x1="145" y1="0" x2="145" y2="23"/>
		<line class="st3" x1="23" y1="145" x2="23" y2="168"/>
		<line class="st3" x1="145" y1="145" x2="145" y2="168"/>
		<path class="st2" d="M84,124.5C88.9,84,145,84,145,23"/>
		<path class="st2" d="M113,84.2c16,12,32,27,32,60.8"/>
		<path class="st2" d="M84.6,43.5C79.7,84,23,84,23,145"/>
		<path class="st2" d="M55.5,83.6C39.5,71.7,23,56.8,23,23"/>
	</g>
	<g transform="matrix(2,0,0,2,126,140) translate(1176,336)">
		<line class="st3" x1="23" y1="0" x2="23" y2="168"/>
		<line class="st3" x1="145" y1="0" x2="145" y2="168"/>
	</g>
	<g transform="matrix(2,0,0,2,126,140) translate(1176,504)">
		<line class="st3" x1="23" y1="0" x2="23" y2="168"/>
		<line class="st3" x1="145" y1="0" x2="145" y2="168"/>
	</g>
	<g transform="matrix(2,0,0,2,126,140) translate(1176,672)">
		<path class="st3" d="M145,0c0,80.1-64.9,145-145,145"/>
		<path class="st3" d="M23,0c0,12.7-10.3,23-23,23"/>
	</g>
	<g transform="matrix(2,0,0,2,126,140) translate(1008,672)">
		<line class="st3" x1="0" y1="23" x2="168" y2="23"/>
		<line class="st3" x1="0" y1="145" x2="168" y2="145"/>
	</g>
	<g transform="matrix(2,0,0,2,126,140) translate(840,672)">
		<path class="st3" d="M168,145C87.9,145,23,80.1,23,0"/>
		<path class="st3" d="M168,23c-12.7,0-23-10.3-23-23"/>
	</g>
	<g transform="matrix(2,0,0,2,126,140) translate(924,611) scale(-1.22,1.22) translate(-50,-50)">
		<path class="st2" d="M0,100c0-7.8,0-3.9,0-11.8c0-0.9-1.4-4.5-2.3-5.2c-1.9-1.3-5.3-2.5-8.9-3.8c-4-1.5-9.4-4.6-11.8-7.7
			c-0.4-0.5-1.8-2.6-2-3.2c-3.1-8.4-6.6-16.5-7-24.7c-0.2-4-0.2-17.5,0.4-20.1c0.9-3.7,9.2-6,13.2-4.2c2.7,1.2,4.2,12.2,4.5,15.1
			c0.4,3.7,2.1,7.1,3.8,10.4c0.4,0.7,0.7,1.4,1.3,1.9c0.5,0.4,1.2,0.6,1.9,0.8c5,1.2,1.5,0.6,6.4,2.3c5,1.8,8.8,5.8,13.2,8.7"/>
		<path class="st2" d="M-0.8,49.3c0.7-18.5-0.9-39.1-2.9-57.6c-0.4-3.5-0.8-7.1-0.2-10.5s3.8-8.6,6.9-10.2
			c5.4-2.8,11.8,1.2,13.1,7.8s5.5,27,6.5,41.5c0.2,8.1,2.6,9.6,6.3,9.3c1.2-0.1,2.5-0.3,3.5-1C34,27.2,34,25,34,23.1
			c-0.4-16.3-4.4-57.4-2.4-62.3s12.5-7.9,16.8-3S51.1,2.5,54,19.6c1,5.7,6,3,7.5,1.6c4.3-4.2,3.6-12.1,2.9-18.1
			c-1.1-9.2-0.9-17.2-0.6-27.8c0.3-10.6,15.1-15,17.2-4.2c0.6,14.2,0.9,29.3,1,43.5c0,3.1,0,6.3,1.3,9.1s8.9,1.9,9.7-0.6
			c0.8-2.5,0.8-5.2,0.8-7.9c0-7,0.6-14.1,1.7-21c0.6-3.5,1.5-7.4,4.5-9.3c2.6-1.7,10.2-2.3,12.8,0.2c2.6,2.5,2.5,19.8,1.9,27.7
			c-1.1,13.1-0.7,26.4,0.2,39.5c0.2,3.2,0.5,6.5-0.1,9.7c-1.1,6.1-5.1,11.4-10.1,15.1c-1,0.7-4.1,1.4-4.7,2.5
			c-0.6,1.2-0.3,10.8,0,20.1"/>
	</g>
</g>
</svg>
