<?xml version="1.0" encoding="utf-8"?>
<!-- Generator: Adobe Illustrator 24.1.2, SVG Export Plug-In . SVG Version: 6.00 Build 0)  -->
<svg version="1.1" id="Layer_1" xmlns="http://www.w3.org/2000/svg" xmlns:xlink="http://www.w3.org/1999/xlink" x="0px" y="0px"
	 width="2940px" height="1960px" viewBox="0 0 2940 1960" style="enable-background:new 0 0 2940 1960;" xml:space="preserve">
<style type="text/css">
	.st0{fill:#FFFFFF;}
	.st1{fill:none;stroke:#000000;stroke-width:2;stroke-linecap:round;stroke-miterlimit:20;}
	.st2{fill:none;stroke:#000000;stroke-width:13.1824;stroke-linecap:round;stroke-miterlimit:20;}
</style>
<g>
	<g transform="scale(2,2)">
		<rect class="st0" width="1470" height="980"/>
	</g>
	<g transform="scale(2,2)">
		<rect class="st1" width="1470" height="980"/>
		<path class="st2" d="M505,770v50c0,27.6-22.4,50-50,50s-50-22.4-50-50v-50"/>
	</g>
	<g transform="matrix(2,0,0,2,126,196) translate(336,560)">
		<path class="st2" d="M0,6c58.5,0,106,47.5,106,106"/>
		<path class="st2" d="M0,106c3.3,0,6,2.7,6,6"/>
	</g>
	<g transform="matrix(2,0,0,2,126,196) translate(224,560)">
		<path class="st2" d="M6,112C6,53.5,53.5,6,112,6"/>
		<path class="st2" d="M106,112c0-3.3,2.7-6,6-6"/>
	</g>
	<g transform="matrix(2,0,0,2,126,196) translate(224,672)">
		<path class="st2" d="M106,0c0,58.5-47.5,106-106,106"/>
		<path class="st2" d="M6,0c0,3.3-2.7,6-6,6"/>
	</g>
	<g transform="matrix(2,0,0,2,126,196) translate(112,672)">
		<path class="st2" d="M112,106C53.5,106,6,58.5,6,0"/>
		<path class="st2" d="M112,6c-3.3,0-6-2.7-6-6"/>
	</g>
	<g transform="matrix(2,0,0,2,126,196) translate(112,560)">
		<line class="st2" x1="6" y1="0" x2="6" y2="112"/>
		<line class="st2" x1="106" y1="0" x2="106" y2="112"/>
	</g>
	<g transform="matrix(2,0,0,2,126,196) translate(112,448)">
		<path class="st2" d="M0,6c58.5,0,106,47.5,106,106"/>
		<path class="st2" d="M0,106c3.3,0,6,2.7,6,6"/>
	</g>
	<g transform="matrix(2,0,0,2,126,196) translate(0,448)">
		<path class="st2" d="M6,112C6,53.5,53.5,6,112,6"/>
		<path class="st2" d="M106,112c0-3.3,2.7-6,6-6"/>
	</g>
	<g transform="matrix(2,0,0,2,126,196) translate(0,560)">
		<line class="st2" x1="6" y1="0" x2="6" y2="112"/>
		<line class="st2" x1="106" y1="0" x2="106" y2="112"/>
	</g>
	<g transform="matrix(2,0,0,2,126,196) translate(56,728) rotate(180) translate(0,6) scale(-1,1) translate(-50,-50)">
		<path class="st2" d="M0,100V50C0,22.4,22.4,0,50,0s50,22.4,50,50v50"/>
	</g>
	<g transform="matrix(2,0,0,2,126,196) translate(280,56) rotate(-90) translate(-50,-44)">
		<path class="st2" d="M0,100V50C0,22.4,22.4,0,50,0s50,22.4,50,50v50"/>
	</g>
	<g transform="matrix(2,0,0,2,126,196) translate(336,0)">
		<path class="st2" d="M0,6c58.5,0,106,47.5,106,106"/>
		<path class="st2" d="M0,106c3.3,0,6,2.7,6,6"/>
	</g>
	<g transform="matrix(2,0,0,2,126,196) translate(336,112)">
		<path class="st2" d="M112,106C53.5,106,6,58.5,6,0"/>
		<path class="st2" d="M112,6c-3.3,0-6-2.7-6-6"/>
	</g>
	<g transform="matrix(2,0,0,2,126,196) translate(448,112)">
		<line class="st2" x1="0" y1="6" x2="6" y2="6"/>
		<line class="st2" x1="106" y1="6" x2="112" y2="6"/>
		<line class="st2" x1="0" y1="106" x2="6" y2="106"/>
		<line class="st2" x1="106" y1="106" x2="112" y2="106"/>
	</g>
	<g transform="matrix(2,0,0,2,126,196) translate(560,112)">
		<path class="st2" d="M106,0c0,58.5-47.5,106-106,106"/>
		<path class="st2" d="M6,0c0,3.3-2.7,6-6,6"/>
	</g>
	<g transform="matrix(2,0,0,2,126,196) translate(560,0)">
		<path class="st2" d="M0,6c58.5,0,106,47.5,106,106"/>
		<path class="st2" d="M0,106c3.3,0,6,2.7,6,6"/>
	</g>
	<g transform="matrix(2,0,0,2,126,196) translate(448,0)">
		<path class="st2" d="M6,112C6,53.5,53.5,6,112,6"/>
		<path class="st2" d="M106,112c0-3.3,2.7-6,6-6"/>
	</g>
	<g transform="matrix(2,0,0,2,126,196) translate(448,112)">
		<line class="st2" x1="6" y1="0" x2="6" y2="112"/>
		<line class="st2" x1="106" y1="0" x2="106" y2="112"/>
	</g>
	<g transform="matrix(2,0,0,2,126,196) translate(448,224)">
		<path class="st2" d="M112,106C53.5,106,6,58.5,6,0"/>
		<path class="st2" d="M112,6c-3.3,0-6-2.7-6-6"/>
	</g>
	<g transform="matrix(2,0,0,2,126,196) translate(560,224)">
		<path class="st2" d="M0,6c58.5,0,106,47.5,106,106"/>
		<path class="st2" d="M0,106c3.3,0,6,2.7,6,6"/>
	</g>
	<g transform="matrix(2,0,0,2,126,196) translate(560,336)">
		<path class="st2" d="M112,106C53.5,106,6,58.5,6,0"/>
		<path class="st2" d="M112,6c-3.3,0-6-2.7-6-6"/>
	</g>
	<g transform="matrix(2,0,0,2,126,196) translate(672,336)">
		<path class="st2" d="M0,6c58.5,0,106,47.5,106,106"/>
		<path class="st2" d="M0,106c3.3,0,6,2.7,6,6"/>
	</g>
	<g transform="matrix(2,0,0,2,126,196) translate(672,448)">
		<path class="st2" d="M112,106C53.5,106,6,58.5,6,0"/>
		<path class="st2" d="M112,6c-3.3,0-6-2.7-6-6"/>
	</g>
	<g transform="matrix(2,0,0,2,126,196) translate(784,448)">
		<line class="st2" x1="0" y1="6" x2="6" y2="6"/>
		<line class="st2" x1="106" y1="6" x2="112" y2="6"/>
		<line class="st2" x1="0" y1="106" x2="6" y2="106"/>
		<line class="st2" x1="106" y1="106" x2="112" y2="106"/>
	</g>
	<g transform="matrix(2,0,0,2,126,196) translate(896,448)">
		<path class="st2" d="M0,6c58.5,0,106,47.5,106,106"/>
		<path class="st2" d="M0,106c3.3,0,6,2.7,6,6"/>
	</g>
	<g transform="matrix(2,0,0,2,126,196) translate(896,560)">
		<line class="st2" x1="6" y1="0" x2="6" y2="112"/>
		<line class="st2" x1="106" y1="0" x2="106" y2="112"/>
	</g>
	<g transform="matrix(2,0,0,2,126,196) translate(896,672)">
		<path class="st2" d="M106,0c0,58.5-47.5,106-106,106"/>
		<path class="st2" d="M6,0c0,3.3-2.7,6-6,6"/>
	</g>
	<g transform="matrix(2,0,0,2,126,196) translate(784,672)">
		<line class="st2" x1="0" y1="6" x2="112" y2="6"/>
		<line class="st2" x1="0" y1="106" x2="112" y2="106"/>
	</g>
	<g transform="matrix(2,0,0,2,126,196) translate(672,672)">
		<path class="st2" d="M112,106C53.5,106,6,58.5,6,0"/>
		<path class="st2" d="M112,6c-3.3,0-6-2.7-6-6"/>
	</g>
	<g transform="matrix(2,0,0,2,126,196) translate(672,560)">
		<path class="st2" d="M0,6c58.5,0,106,47.5,106,106"/>
		<path class="st2" d="M0,106c3.3,0,6,2.7,6,6"/>
	</g>
	<g transform="matrix(2,0,0,2,126,196) translate(560,560)">
		<line class="st2" x1="0" y1="6" x2="6" y2="6"/>
		<line class="st2" x1="106" y1="6" x2="112" y2="6"/>
		<line class="st2" x1="0" y1="106" x2="6" y2="106"/>
		<line class="st2" x1="106" y1="106" x2="112" y2="106"/>
	</g>
	<g transform="matrix(2,0,0,2,126,196) translate(448,560)">
		<path class="st2" d="M6,112C6,53.5,53.5,6,112,6"/>
		<path class="st2" d="M106,112c0-3.3,2.7-6,6-6"/>
	</g>
	<g transform="matrix(2,0,0,2,126,196) translate(448,672)">
		<path class="st2" d="M112,106C53.5,106,6,58.5,6,0"/>
		<path class="st2" d="M112,6c-3.3,0-6-2.7-6-6"/>
	</g>
	<g transform="matrix(2,0,0,2,126,196) translate(560,672)">
		<path class="st2" d="M106,0c0,58.5-47.5,106-106,106"/>
		<path class="st2" d="M6,0c0,3.3-2.7,6-6,6"/>
	</g>
	<g transform="matrix(2,0,0,2,126,196) translate(560,560)">
		<line class="st2" x1="6" y1="0" x2="6" y2="6"/>
		<line class="st2" x1="106" y1="0" x2="106" y2="6"/>
		<line class="st2" x1="6" y1="106" x2="6" y2="112"/>
		<line class="st2" x1="106" y1="106" x2="106" y2="112"/>
		<path class="st2" d="M56,89.2C60,56,106,56,106,6"/>
		<path class="st2" d="M79.8,56.2C92.9,66,106,78.3,106,106"/>
		<path class="st2" d="M56.5,22.8C52.5,56,6,56,6,106"/>
		<path class="st2" d="M32.6,55.7C19.5,45.9,6,33.7,6,6"/>
	</g>
	<g transform="matrix(2,0,0,2,126,196) translate(560,448)">
		<path class="st2" d="M0,6c58.5,0,106,47.5,106,106"/>
		<path class="st2" d="M0,106c3.3,0,6,2.7,6,6"/>
	</g>
	<g transform="matrix(2,0,0,2,126,196) translate(448,448)">
		<line class="st2" x1="0" y1="6" x2="112" y2="6"/>
		<line class="st2" x1="0" y1="106" x2="112" y2="106"/>
	</g>
	<g transform="matrix(2,0,0,2,126,196) translate(336,448)">
		<path class="st2" d="M112,106C53.5,106,6,58.5,6,0"/>
		<path class="st2" d="M112,6c-3.3,0-6-2.7-6-6"/>
	</g>
	<g transform="matrix(2,0,0,2,126,196) translate(336,336)">
		<line class="st2" x1="6" y1="0" x2="6" y2="6"/>
		<line class="st2" x1="6" y1="106" x2="6" y2="112"/>
		<line class="st2" x1="106" y1="0" x2="106" y2="6"/>
		<line class="st2" x1="106" y1="106" x2="106" y2="112"/>
	</g>
	<g transform="matrix(2,0,0,2,126,196) translate(336,224)">
		<path class="st2" d="M0,6c58.5,0,106,47.5,106,106"/>
		<path class="st2" d="M0,106c3.3,0,6,2.7,6,6"/>
	</g>
	<g transform="matrix(2,0,0,2,126,196) translate(224,224)">
		<path class="st2" d="M112,106C53.5,106,6,58.5,6,0"/>
		<path class="st2" d="M112,6c-3.3,0-6-2.7-6-6"/>
	</g>
	<g transform="matrix(2,0,0,2,126,196) translate(224,112)">
		<path class="st2" d="M0,6c58.5,0,106,47.5,106,106"/>
		<path class="st2" d="M0,106c3.3,0,6,2.7,6,6"/>
	</g>
	<g transform="matrix(2,0,0,2,126,196) translate(112,112)">
		<line class="st2" x1="0" y1="6" x2="6" y2="6"/>
		<line class="st2" x1="106" y1="6" x2="112" y2="6"/>
		<line class="st2" x1="0" y1="106" x2="6" y2="106"/>
		<line class="st2" x1="106" y1="106" x2="112" y2="106"/>
	</g>
	<g transform="matrix(2,0,0,2,126,196) translate(0,112)">
		<path class="st2" d="M6,112C6,53.5,53.5,6,112,6"/>
		<path class="st2" d="M106,112c0-3.3,2.7-6,6-6"/>
	</g>
	<g transform="matrix(2,0,0,2,126,196) translate(0,224)">
		<line class="st2" x1="6" y1="0" x2="6" y2="112"/>
		<line class="st2" x1="106" y1="0" x2="106" y2="112"/>
	</g>
	<g transform="matrix(2,0,0,2,126,196) translate(0,336)">
		<path class="st2" d="M112,106C53.5,106,6,58.5,6,0"/>
		<path class="st2" d="M112,6c-3.3,0-6-2.7-6-6"/>
	</g>
	<g transform="matrix(2,0,0,2,126,196) translate(112,336)">
		<path class="st2" d="M106,0c0,58.5-47.5,106-106,106"/>
		<path class="st2" d="M6,0c0,3.3-2.7,6-6,6"/>
	</g>
	<g transform="matrix(2,0,0,2,126,196) translate(112,224)">
		<line class="st2" x1="6" y1="0" x2="6" y2="112"/>
		<line class="st2" x1="106" y1="0" x2="106" y2="112"/>
	</g>
	<g transform="matrix(2,0,0,2,126,196) translate(112,112)">
		<line class="st2" x1="6" y1="0" x2="6" y2="112"/>
		<line class="st2" x1="106" y1="0" x2="106" y2="112"/>
	</g>
	<g transform="matrix(2,0,0,2,126,196) translate(112,0)">
		<path class="st2" d="M0,6c58.5,0,106,47.5,106,106"/>
		<path class="st2" d="M0,106c3.3,0,6,2.7,6,6"/>
	</g>
	<g transform="matrix(2,0,0,2,126,196) translate(56,56) rotate(-90) translate(0,6) scale(-1,1) translate(-50,-50)">
		<path class="st2" d="M0,100V50C0,22.4,22.4,0,50,0s50,22.4,50,50v50"/>
	</g>
	<g transform="matrix(2,0,0,2,126,196) translate(1238,236)">
		<path class="st2" d="M0-129.7v-50c0-27.6,22.4-50,50-50s50,22.4,50,50v50"/>
	</g>
	<g transform="matrix(2,0,0,2,126,196) translate(1232,336)">
		<line class="st2" x1="6" y1="-230" x2="6" y2="112"/>
		<line class="st2" x1="106" y1="-230" x2="106" y2="112"/>
	</g>
	<g transform="matrix(2,0,0,2,126,196) translate(1232,448)">
		<line class="st2" x1="6" y1="0" x2="6" y2="112"/>
		<line class="st2" x1="106" y1="0" x2="106" y2="112"/>
	</g>
	<g transform="matrix(2,0,0,2,126,196) translate(1232,560)">
		<path class="st2" d="M106,0c0,58.5-47.5,106-106,106"/>
		<path class="st2" d="M6,0c0,3.3-2.7,6-6,6"/>
	</g>
	<g transform="matrix(2,0,0,2,126,196) translate(1120,560)">
		<path class="st2" d="M112,106C53.5,106,6,58.5,6,0"/>
		<path class="st2" d="M112,6c-3.3,0-6-2.7-6-6"/>
	</g>
	<g transform="matrix(2,0,0,2,126,196) translate(1120,448)">
		<path class="st2" d="M0,6c58.5,0,106,47.5,106,106"/>
		<path class="st2" d="M0,106c3.3,0,6,2.7,6,6"/>
	</g>
	<g transform="matrix(2,0,0,2,126,196) translate(1008,448)">
		<path class="st2" d="M6,112C6,53.5,53.5,6,112,6"/>
		<path class="st2" d="M106,112c0-3.3,2.7-6,6-6"/>
	</g>
	<g transform="matrix(2,0,0,2,126,196) translate(1008,560)">
		<line class="st2" x1="6" y1="0" x2="6" y2="112"/>
		<line class="st2" x1="106" y1="0" x2="106" y2="112"/>
	</g>
	<g transform="matrix(2,0,0,2,126,196) translate(1008,672)">
		<path class="st2" d="M112,106C53.5,106,6,58.5,6,0"/>
		<path class="st2" d="M112,6c-3.3,0-6-2.7-6-6"/>
	</g>
	<g transform="matrix(2,0,0,2,126,196) translate(1120,672)">
		<line class="st2" x1="0" y1="6" x2="6" y2="6"/>
		<line class="st2" x1="0" y1="106" x2="6" y2="106"/>
		<line class="st2" x1="106" y1="6" x2="112" y2="6"/>
		<line class="st2" x1="106" y1="106" x2="112" y2="106"/>
		<path class="st2" d="M22.8,56C56,60,56,106,106,106"/>
		<path class="st2" d="M55.8,79.8C46,92.9,33.7,106,6,106"/>
		<path class="st2" d="M89.2,56.5C56,52.5,56,6,6,6"/>
		<path class="st2" d="M56.3,32.6C66.1,19.5,78.3,6,106,6"/>
	</g>
	<g transform="matrix(2,0,0,2,126,196) translate(1288,728) rotate(90) translate(0,6) scale(-1,1) translate(-50,-50)">
		<path class="st2" d="M0,100V50C0,22.4,22.4,0,50,0s50,22.4,50,50v50"/>
	</g>
	<g transform="matrix(2,0,0,2,126,196) translate(840,280) rotate(180) translate(-50,-44)">
		<path class="st2" d="M0,100V50C0,22.4,22.4,0,50,0s50,22.4,50,50v50"/>
	</g>
	<g transform="matrix(2,0,0,2,126,196) translate(784,112)">
		<line class="st2" x1="6" y1="0" x2="6" y2="112"/>
		<line class="st2" x1="106" y1="0" x2="106" y2="112"/>
	</g>
	<g transform="matrix(2,0,0,2,126,196) translate(784,0)">
		<path class="st2" d="M6,112C6,53.5,53.5,6,112,6"/>
		<path class="st2" d="M106,112c0-3.3,2.7-6,6-6"/>
	</g>
	<g transform="matrix(2,0,0,2,126,196) translate(896,0)">
		<path class="st2" d="M0,6c58.5,0,106,47.5,106,106"/>
		<path class="st2" d="M0,106c3.3,0,6,2.7,6,6"/>
	</g>
	<g transform="matrix(2,0,0,2,126,196) translate(896,112)">
		<line class="st2" x1="6" y1="0" x2="6" y2="112"/>
		<line class="st2" x1="106" y1="0" x2="106" y2="112"/>
	</g>
	<g transform="matrix(2,0,0,2,126,196) translate(896,224)">
		<path class="st2" d="M112,106C53.5,106,6,58.5,6,0"/>
		<path class="st2" d="M112,6c-3.3,0-6-2.7-6-6"/>
	</g>
	<g transform="matrix(2,0,0,2,126,196) translate(1008,224)">
		<line class="st2" x1="0" y1="6" x2="6" y2="6"/>
		<line class="st2" x1="106" y1="6" x2="112" y2="6"/>
		<line class="st2" x1="0" y1="106" x2="6" y2="106"/>
		<line class="st2" x1="106" y1="106" x2="112" y2="106"/>
	</g>
	<g transform="matrix(2,0,0,2,126,196) translate(1120,224)">
		<path class="st2" d="M106,0c0,58.5-47.5,106-106,106"/>
		<path class="st2" d="M6,0c0,3.3-2.7,6-6,6"/>
	</g>
	<g transform="matrix(2,0,0,2,126,196) translate(1120,112)">
		<line class="st2" x1="6" y1="0" x2="6" y2="112"/>
		<line class="st2" x1="106" y1="0" x2="106" y2="112"/>
	</g>
	<g transform="matrix(2,0,0,2,126,196) translate(1120,0)">
		<path class="st2" d="M0,6c58.5,0,106,47.5,106,106"/>
		<path class="st2" d="M0,106c3.3,0,6,2.7,6,6"/>
	</g>
	<g transform="matrix(2,0,0,2,126,196) translate(1008,0)">
		<path class="st2" d="M6,112C6,53.5,53.5,6,112,6"/>
		<path class="st2" d="M106,112c0-3.3,2.7-6,6-6"/>
	</g>
	<g transform="matrix(2,0,0,2,126,196) translate(1008,112)">
		<line class="st2" x1="6" y1="0" x2="6" y2="112"/>
		<line class="st2" x1="106" y1="0" x2="106" y2="112"/>
	</g>
	<g transform="matrix(2,0,0,2,126,196) translate(1008,224)">
		<line class="st2" x1="6" y1="0" x2="6" y2="6"/>
		<line class="st2" x1="106" y1="0" x2="106" y2="6"/>
		<line class="st2" x1="6" y1="106" x2="6" y2="112"/>
		<line class="st2" x1="106" y1="106" x2="106" y2="112"/>
		<path class="st2" d="M56,89.2C60,56,106,56,106,6"/>
		<path class="st2" d="M79.8,56.2C92.9,66,106,78.3,106,106"/>
		<path class="st2" d="M56.5,22.8C52.5,56,6,56,6,106"/>
		<path class="st2" d="M32.6,55.7C19.5,45.9,6,33.7,6,6"/>
	</g>
	<g transform="matrix(2,0,0,2,126,196) translate(1008,336)">
		<path class="st2" d="M112,106C53.5,106,6,58.5,6,0"/>
		<path class="st2" d="M112,6c-3.3,0-6-2.7-6-6"/>
	</g>
	<g transform="matrix(2,0,0,2,126,196) translate(1176,392) rotate(90) translate(0,6) scale(-1,1) translate(-50,-50)">
		<path class="st2" d="M0,100V50C0,22.4,22.4,0,50,0s50,22.4,50,50v50"/>
	</g>
	<g transform="matrix(2,0,0,2,126,196) translate(678,12)">
		<path class="st2" d="M0,100V50C0,22.4,22.4,0,50,0s50,22.4,50,50v50"/>
	</g>
	<g transform="matrix(2,0,0,2,126,196) translate(672,112)">
		<line class="st2" x1="6" y1="0" x2="6" y2="112"/>
		<line class="st2" x1="106" y1="0" x2="106" y2="112"/>
	</g>
	<g transform="matrix(2,0,0,2,126,196) translate(728,280) rotate(180) translate(0,6) scale(-1,1) translate(-50,-50)">
		<path class="st2" d="M0,100V50C0,22.4,22.4,0,50,0s50,22.4,50,50v50"/>
	</g>
	<g transform="matrix(2,0,0,2,126,196) translate(504,392) rotate(90) translate(-50,-44)">
		<path class="st2" d="M0,100V50C0,22.4,22.4,0,50,0s50,22.4,50,50v50"/>
	</g>
	<g transform="matrix(2,0,0,2,126,196) translate(336,336)">
		<line class="st2" x1="0" y1="6" x2="6" y2="6"/>
		<line class="st2" x1="0" y1="106" x2="6" y2="106"/>
		<line class="st2" x1="106" y1="6" x2="112" y2="6"/>
		<line class="st2" x1="106" y1="106" x2="112" y2="106"/>
		<path class="st2" d="M22.8,56C56,60,56,106,106,106"/>
		<path class="st2" d="M55.8,79.8C46,92.9,33.7,106,6,106"/>
		<path class="st2" d="M89.2,56.5C56,52.5,56,6,6,6"/>
		<path class="st2" d="M56.3,32.6C66.1,19.5,78.3,6,106,6"/>
	</g>
	<g transform="matrix(2,0,0,2,126,196) translate(224,336)">
		<path class="st2" d="M6,112C6,53.5,53.5,6,112,6"/>
		<path class="st2" d="M106,112c0-3.3,2.7-6,6-6"/>
	</g>
	<g transform="matrix(2,0,0,2,126,196) translate(280,504) rotate(180) translate(0,6) scale(-1,1) translate(-50,-50)">
		<path class="st2" d="M0,100V50C0,22.4,22.4,0,50,0s50,22.4,50,50v50"/>
	</g>
	<g transform="matrix(2,0,0,2,126,196) translate(840,616) rotate(180) translate(-50,-44)">
		<path class="st2" d="M0,100V50C0,22.4,22.4,0,50,0s50,22.4,50,50v50"/>
	</g>
	<g transform="matrix(2,0,0,2,126,196) translate(784,448)">
		<line class="st2" x1="6" y1="0" x2="6" y2="112"/>
		<line class="st2" x1="106" y1="0" x2="106" y2="112"/>
	</g>
	<g transform="matrix(2,0,0,2,126,196) translate(784,336)">
		<path class="st2" d="M6,112C6,53.5,53.5,6,112,6"/>
		<path class="st2" d="M106,112c0-3.3,2.7-6,6-6"/>
	</g>
	<g transform="matrix(2,0,0,2,126,196) translate(952,392) rotate(90) translate(0,6) scale(-1,1) translate(-50,-50)">
		<path class="st2" d="M0,100V50C0,22.4,22.4,0,50,0s50,22.4,50,50v50"/>
	</g>
</g>
</svg>
