<?xml version="1.0" encoding="utf-8"?>
<!-- Generator: Adobe Illustrator 24.1.2, SVG Export Plug-In . SVG Version: 6.00 Build 0)  -->
<!DOCTYPE svg PUBLIC "-//W3C//DTD SVG 1.1//EN" "http://www.w3.org/Graphics/SVG/1.1/DTD/svg11.dtd" [
	<!ENTITY st0 "fill:none;stroke:#000000;stroke-width:5.6693;stroke-linecap:round;stroke-linejoin:round;stroke-miterlimit:10;">
	
		<!ENTITY st1 "fill:none;stroke:#000000;stroke-width:5.6693;stroke-linecap:round;stroke-linejoin:round;stroke-miterlimit:76.176;">
]>
<svg version="1.1" id="Layer_1" xmlns="http://www.w3.org/2000/svg" xmlns:xlink="http://www.w3.org/1999/xlink" x="0px" y="0px"
	 width="1008px" height="792px" viewBox="0 0 1008 792" style="enable-background:new 0 0 1008 792;" xml:space="preserve">
<path style="&st0;" d="M501.66,422.63c-16.8,22.46-37.89,44.77-85.38,44.77v0.14h-63.36c-13.46,0-6.74,0-20.21,0
	c-1.56,0-7.71,2.31-8.86,4.03c-2.21,3.33-4.23,9.15-6.5,15.17c-2.57,6.86-7.9,16.05-13.18,20.26c-0.94,0.75-4.44,3-5.43,3.36
	c-14.42,5.28-28.22,11.38-42.35,11.93c-6.94,0.27-29.93,0.39-34.41-0.63c-6.36-1.47-10.27-15.82-7.2-22.6
	c2.07-4.58,20.86-7.13,25.85-7.68c6.31-0.69,12.14-3.6,17.8-6.46c1.17-0.6,2.38-1.22,3.21-2.25c0.74-0.93,2.36-5.74,5.36-14.12
	c3.05-8.54,9.94-15.05,14.98-22.58"/>
<path style="&st0;" d="M558.92,382.69C502,375.83,502,295.97,416.28,295.97v0.14h-63.36h0.02c-15.86,0.6-32.42,1.06-34.41,0
	c-1.8-0.98-3.02-6.34-4.25-7.99c-6.39-8.49-15.48-15.38-25.94-17.25c-5.49-0.98-11.11-0.57-16.68-0.21
	c-22.56,1.47-45.24,2.13-67.79,0.33c-13.6-1.1-43.22-1.17-47.56,3.21s-3.31,17.42-0.43,21.91c3.29,5.11,9.91,6.75,15.91,7.73
	c11.9,1.94,23.97,2.91,36.02,2.93c4.54,0,9.17-0.12,13.48,1.34c4.3,1.44,5.79,14.49,0.96,16.7c-4.83,2.21-10.36,2.23-15.67,2.25
	c-24.29,0.05-50.28,0.62-74.54,1.68c-18.58,3.53-11.04,28.94,7.15,29.42c18.19,0.5,71.51-3.5,78.67,3.89
	c2.47,2.55,7.01,11.23-2.71,12.88c-29.44,5.01-97.89,2.43-106.17,9.65s-3.17,25.24,5.23,28.73c8.4,3.5,78.88-3.31,106.81-4.03
	c3.29-0.09,7.08,0.07,9.14,2.62c1.32,1.65,1.56,3.87,1.77,5.97c0.62,6.46-2.04,10.44-15.88,10.87
	c-24.82,1.68-59.88,8.93-71.15,11.18c-11.26,2.25-18.05,13.25-13.3,22.46c2.76,5.38,11.61,10.77,17.56,11.85
	c5.95,1.08,12.05,0.34,18.07-0.29c31.65-3.38,66.95-6.19,98.75-5.01"/>
<path style="&st1;" d="M445.08,381.83c56.91,6.84,56.91,85.73,142.64,85.73h63.37c13.47,0,6.73,0,20.2,0c1.57,0,7.73,2.32,8.86,4.03
	c2.21,3.34,4.22,9.16,6.49,15.18c2.57,6.84,7.89,16.04,13.19,20.26c0.94,0.75,4.44,3.01,5.44,3.37
	c14.41,5.27,28.21,11.37,42.34,11.92c6.96,0.28,29.95,0.39,34.42-0.63c6.35-1.46,10.27-15.81,7.2-22.6
	c-2.07-4.58-20.87-7.12-25.86-7.67c-6.32-0.69-12.14-3.59-17.8-6.46c-1.16-0.61-2.37-1.21-3.2-2.24c-0.75-0.94-2.37-5.74-5.38-14.13
	c-3.06-8.53-9.94-15.04-14.99-22.58"/>
<path style="&st1;" d="M738.03,468.91c31.8-1.19,67.1,1.63,98.75,5c6.02,0.63,12.12,1.38,18.08,0.3
	c5.96-1.08,14.79-6.46,17.55-11.84c4.75-9.22-2.04-20.2-13.3-22.47c-11.26-2.24-46.31-9.49-71.15-11.18
	c-13.83-0.44-16.5-4.42-15.87-10.87c0.19-2.1,0.44-4.33,1.77-5.96c2.07-2.57,5.85-2.7,9.14-2.62c27.93,0.72,98.39,7.53,106.81,4.03
	c8.39-3.51,13.5-21.53,5.22-28.73c-8.28-7.23-76.73-4.64-106.18-9.66c-9.72-1.66-5.19-10.32-2.7-12.86
	c7.18-7.4,60.5-3.39,78.69-3.89c18.19-0.47,25.72-25.89,7.15-29.42c-24.26-1.08-50.26-1.63-74.55-1.68
	c-5.33-0.03-10.85-0.03-15.68-2.24c-4.83-2.21-3.34-15.26,0.97-16.7c4.31-1.46,8.94-1.32,13.47-1.32
	c12.06-0.03,24.12-0.99,36.02-2.93c5.99-0.97,12.61-2.62,15.9-7.73c2.87-4.5,3.92-17.53-0.44-21.91c-4.33-4.36-33.98-4.31-47.55-3.2
	c-22.55,1.79-45.24,1.16-67.79-0.33c-5.58-0.36-11.21-0.77-16.67,0.19c-10.46,1.88-19.54,8.75-25.94,17.25
	c-1.24,1.66-2.46,7.01-4.25,7.98c-1.99,1.08-18.55,0.61-34.42,0h0.03h-63.37c-47.5,0-68.59,23.32-85.37,45.79"/>
</svg>
