<?xml version="1.0" encoding="utf-8"?>
<!-- Generator: Adobe Illustrator 24.1.0, SVG Export Plug-In . SVG Version: 6.00 Build 0)  -->
<svg version="1.1" id="Layer_2_1_" xmlns="http://www.w3.org/2000/svg" xmlns:xlink="http://www.w3.org/1999/xlink" x="0px" y="0px"
	 viewBox="0 0 100 100" style="enable-background:new 0 0 100 100;" xml:space="preserve">
<style type="text/css">
	.st0{fill:none;stroke:#000000;stroke-miterlimit:10;}
</style>
<path class="st0" d="M0,100v-5.7c0,0-53.3-50.8-52.6-62.3s22.1-51,39-49.8c27.5,1.9,38.2,44.2,56.4,47.1s26.9,1.5,26.9,1.5"/>
<path class="st0" d="M100,100c0,0,0-7,0-10.7c0-10.7,44.7-28.7,44.1-40.4c-0.5-11.6-5-48.6-24.5-56.9C108.8-12.7,93.5-20.8,82-18.2
	c-17.9,4.2-39,47.5-39,47.5"/>
<path class="st0" d="M13.5,107.5c0,0-4.4-5.8-20.8-20.3"/>
</svg>
