<?xml version="1.0" encoding="utf-8"?>
<!-- Generator: Adobe Illustrator 24.1.0, SVG Export Plug-In . SVG Version: 6.00 Build 0)  -->
<svg version="1.1" id="Layer_2_1_" xmlns="http://www.w3.org/2000/svg" xmlns:xlink="http://www.w3.org/1999/xlink" x="0px" y="0px"
	 viewBox="0 0 100 100" style="enable-background:new 0 0 100 100;" xml:space="preserve">
<style type="text/css">
	.st0{fill:#FFFFFF;stroke:#000000;stroke-miterlimit:10;}
	.st1{fill:none;stroke:#000000;stroke-width:0.9903;stroke-miterlimit:10;}
</style>
<path class="st0" d="M21.1,86.8c-3.9-3.5-10-15.9-10-26.9c0-21.1,4.4-61.9,29-69.6c6.1-1.9,16.1-1.9,21.2,0.1
	C86.7,0.2,88,39.1,88,62.4c0,8.8-5.4,28-10.1,27.4C52.9,86.5,25,90.3,21.1,86.8z"/>
<path class="st1" d="M80.4,99.8c0,0-9.1-1.5-16.6-1.8c-18-0.7-28.9,0.4-31,0.8"/>
<path class="st1" d="M85.1,25.4C94.3,34.5,100,47.1,100,61v39"/>
<path class="st1" d="M0,100V61c0-13.8,5.6-26.3,14.6-35.4"/>
</svg>
