<?xml version="1.0" encoding="utf-8"?>
<!-- Generator: Adobe Illustrator 24.1.0, SVG Export Plug-In . SVG Version: 6.00 Build 0)  -->
<svg version="1.1" id="Layer_2_1_" xmlns="http://www.w3.org/2000/svg" xmlns:xlink="http://www.w3.org/1999/xlink" x="0px" y="0px"
	 viewBox="0 0 100 100" style="enable-background:new 0 0 100 100;" xml:space="preserve">
<style type="text/css">
	.st0{fill:none;stroke:#000000;stroke-width:0.9903;stroke-miterlimit:10;}
</style>
<path class="st0" d="M0,100V50C0,22.4,22.4,0,50,0s50,22.4,50,50v50"/>
<path class="st0" d="M17.1,78.8c-3.9-3.5-8-15.9-8-26.9c0-21.1,11.6-44,40.9-44c27.6,0,41.9,18.3,41.9,43.9c0,8.8-6.3,30.5-11,29.9
	C55.9,78.5,21,82.3,17.1,78.8z"/>
<path class="st0" d="M80.4,91.8c0,0-9.1-1.5-16.6-1.8c-18-0.7-32.9,1.4-35,1.8"/>
</svg>
