<?xml version="1.0" encoding="utf-8"?>
<!-- Generator: Adobe Illustrator 24.1.0, SVG Export Plug-In . SVG Version: 6.00 Build 0)  -->
<svg version="1.1" id="Layer_2_1_" xmlns="http://www.w3.org/2000/svg" xmlns:xlink="http://www.w3.org/1999/xlink" x="0px" y="0px"
	 viewBox="0 0 100 100" style="enable-background:new 0 0 100 100;" xml:space="preserve">
<style type="text/css">
	.st0{fill:none;stroke:#000000;stroke-miterlimit:10;}
</style>
<path class="st0" d="M0,100c0-4.6,0.3-6.7,0-10c-0.7-12.5-10.7-19.6-13.1-31.8c-0.6-3-0.8-6.8,1.8-8.4c2.4-1.5,5.6-0.1,7.7,1.8
	c2.1,1.9,4.1,4.3,6.9,4.9c1.8,0.4,3.8,0,5.5,0.9c3.6,1.9,3.5,8.5,7.5,8.9c3.1,0.3,5.5-3.8,8.4-3c1.8,0.5,2.6,2.4,3.5,4.1
	c3,5.7,9,9.6,15.3,10.1c2.5,0.2,5.2-0.2,6.9-2.1c1.4-1.6,1.7-3.8,1.7-5.9c0.2-7.8-2.1-15.8,0.5-23.1c0.3-0.7,0.6-1.5,1.3-1.8
	c1-0.6,2.3,0.1,3.1,0.9c0.8,0.8,1.5,1.9,2.5,2.4c1.5,0.8,3.5,0.2,4.7-1c1.2-1.2,1.8-2.9,2.2-4.6c1-4.4,0.6-9.1-0.9-13.4
	c-1.9-5.2-5.7-9.7-7.2-15c-2-6.9-1.3-20.7,8.8-21.7c3.8-0.2,5.5,2.5,6.7,5.4C75,0,75.6,3.1,77.1,5.9c1.4,2.7,5.4,3,7.1,5.3
	c1.6,2.3-0.6,3.1-0.2,4.6c0.4,1.5,2.4,0.7,3.4,2.5c1,1.8-1.1,4-0.5,6s2.9,3.4,4.7,2.5c0.8-0.4,1.3-1.2,1.7-1.9
	c1.8-2.9,3.2-6.2,5.9-8.2s7-0.9,8.7,0.7c1.7,1.7,2.5,6.2,1.9,9.9c-1.7,9.6-6.3,12.3-9,21.6c-3.8,13.2-0.9,30.4-0.9,40.9
	c0,4.3,0,10.4,0,10.4"/>
<path class="st0" d="M47.8,26.6c-0.1-1.3,0.2-2.9,1.4-3.6c0.8-0.4,1.8-0.3,2.6,0.1c0.8,0.4,1.4,1.1,1.9,1.9
	c1.5,2.3,4.6,12.2,0.6,13.4C50.4,39.7,47.9,29.1,47.8,26.6z"/>
<path class="st0" d="M11.5,22.3c0-1.4,0.1-3.1,1.3-3.9c1.6-1,3.7,0.6,4.4,2.4c0.8,1.7,0.9,3.6,1.5,5.4c0.6,1.8,1.8,3.5,3.6,4
	c0.8,0.2,1.7,0.1,2.5,0.1c3.3,0.1,6.2,2.1,8.1,4.8c1.8,2.7,2.6,6,3,9.2c0.3,2.5,0.2,5.4-1.6,7.2c-2.6,2.4-6.7,0.7-8.4-1.9
	c-1.3-2-1.4-3.4-3.6-4.6c-1.2-0.6-3.1-0.8-4-1.9c-1.2-1.4-0.2-2.2-0.4-3.7c-0.3-2-2.2-3.2-3.3-4.8C12.2,31,11.7,26.5,11.5,22.3z"/>
</svg>
