<?xml version="1.0" encoding="utf-8"?>
<!-- Generator: Adobe Illustrator 24.1.0, SVG Export Plug-In . SVG Version: 6.00 Build 0)  -->
<svg version="1.1" id="Layer_2_1_" xmlns="http://www.w3.org/2000/svg" xmlns:xlink="http://www.w3.org/1999/xlink" x="0px" y="0px"
	 viewBox="0 0 100 100" style="enable-background:new 0 0 100 100;" xml:space="preserve">
<style type="text/css">
	.st0{fill:none;stroke:#000000;stroke-miterlimit:10;}
</style>
<path class="st0" d="M100,100V38.3V12.8c0-5.5-4.5-10-10-10h-0.4c-5.5,0-10,4.5-10,10V28c0,1.7-1.3,3-3,3h-0.1c-1.7,0-3-1.3-3-3
	v-1.2c0-5.5-4.5-10-10-10h-0.4c-5.5,0-10,4.5-10,10V34c0,1.7-1.3,3-3,3h-0.1c-1.7,0-3-1.3-3-3v-1.2c0-5.5-4.5-10-10-10h-0.4
	c-5.5,0-10,4.5-10,10V35c0,1.7-1.3,3-3,3h-0.1c-1.7,0-3-1.3-3-3V18.8c0-5.5-4.5-10-10-10H10c-5.5,0-10,4.5-10,10V100"/>
</svg>
