<?xml version="1.0" encoding="utf-8"?>
<!-- Generator: Adobe Illustrator 24.1.0, SVG Export Plug-In . SVG Version: 6.00 Build 0)  -->
<svg version="1.1" id="Layer_2_1_" xmlns="http://www.w3.org/2000/svg" xmlns:xlink="http://www.w3.org/1999/xlink" x="0px" y="0px"
	 viewBox="0 0 100 100" style="enable-background:new 0 0 100 100;" xml:space="preserve">
<style type="text/css">
	.st0{fill:none;stroke:#000000;stroke-miterlimit:10;}
</style>
<path class="st0" d="M100,100V21.1V-0.6"/>
<path class="st0" d="M0-0.6v31.2c0,5.5,4.5,10,10,10h0.5c5.5,0,10-4.5,10-10v-6.2c0-1.7,1.3-3,3-3h0.1c1.7,0,3,1.3,3,3v25.2
	c0,5.5,4.5,10,10,10H37c5.5,0,10-4.5,10-10V8.4c0-1.7,1.3-3,3-3h0.1c1.7,0,3,1.3,3,3v7.2c0,5.5,4.5,10,10,10h0.4c5.5,0,10-4.5,10-10
	v-1.2c0-1.7,1.3-3,3-3h0.1c1.7,0,3,1.3,3,3v32.2v10.6V78c0,1.7-1.3,3-3,3h-0.1c-1.7,0-3-1.3-3-3V56.8c0-5.5-4.5-10-10-10h-0.4
	c-5.5,0-10,4.5-10,10V84c0,1.7-1.3,3-3,3H50c-1.7,0-3-1.3-3-3v-1.2c0-5.5-4.5-10-10-10h-0.4c-5.5,0-10,4.5-10,10V85c0,1.7-1.3,3-3,3
	h-0.1c-1.7,0-3-1.3-3-3V58.8c0-5.5-4.5-10-10-10H10c-5.5,0-10,4.5-10,10V100"/>
</svg>
