<?xml version="1.0" encoding="utf-8"?>
<!-- Generator: Adobe Illustrator 24.1.2, SVG Export Plug-In . SVG Version: 6.00 Build 0)  -->
<svg version="1.1" id="Layer_1" xmlns="http://www.w3.org/2000/svg" xmlns:xlink="http://www.w3.org/1999/xlink" x="0px" y="0px"
	 viewBox="0 0 100 100" style="enable-background:new 0 0 100 100;" xml:space="preserve">
<style type="text/css">
	.st0{fill:none;stroke:#000000;stroke-width:1.001;stroke-miterlimit:10;}
	.st1{fill:none;stroke:#000000;stroke-width:0.9759;stroke-miterlimit:10;}
	.st2{fill:none;stroke:#000000;stroke-width:1.0288;stroke-miterlimit:10;}
</style>
<path class="st0" d="M8.45,87.6c1.22-7.85-8.13-15.94-19.71-18.39c-4.18-0.89-9.37-4.62-11.83-7.69c-0.44-0.55-8.61-9.66-8.93-17.9
	c-0.16-4.05-0.06-17.44,0.37-20.09c1.09-6.68,12.78-11.11,19.19-4.2c2,2.15,2.82,6.24,3.48,9.1c1.63,7.02,3.29,6.42,8.33,9.38
	c4.56,2.68,11.09,3.15,15.19,7.75"/>
<path class="st0" d="M-0.84,37.3C-0.15,18.74-1.8,10.12-3.77-8.35c-0.37-3.51-0.92-7.1-0.17-10.55
	c2.72-12.45,18.68-11.15,20.03-2.49c1.04,6.63,5.55,27.04,6.53,41.54c0.25,8.08,2.61,9.9,6.35,9.27c3.04-0.51,4.06-4.44,4.01-6.36
	c-0.42-16.3-3.39-57.04-3.35-62.36c0.07-9.15,17.36-13.06,20.78-3.06c2.07,6.06,2.71,44.81,5.63,61.98c0.96,5.67,5.3,3.49,5.77,1.47
	c1.25-5.35,0.62-11.67,0.63-17.99c0.02-9.53-0.72-17.2-0.61-27.83C61.95-37.22,80.94-39.75,83-28.91
	c0.62,14.16,0.95,29.34,0.99,43.52c0.01,3.11,0.02,6.32,1.31,9.15s6.91,1.95,7.75-0.56s0.78-5.22,0.78-7.87
	c0.01-7.04,0.5-26.21,1.13-29.71c1.51-8.35,17.68-7.86,18.88-0.37c0.57,3.55,2.51,19.83,1.88,27.77
	c-1.05,13.16-0.36,36.11-0.93,39.32c-1.09,6.11-5.11,11.41-10.07,15.14c-0.96,0.72-2.92,1.93-5.66,4.49
	c-2.74,2.56-7.3,6.3-6.96,15.56"/>
<path class="st1" d="M94.24,86.89c0,0-47.11,16.12-87.67,0.16"/>
<path class="st2" d="M100,107.34c0,0-51.79,18.07-100-0.81"/>
<path class="st0" d="M6.35,80.13c0,0-3.09-0.33-4.93,1.05C-1.02,83.02-0.37,95.24,0,100"/>
<path class="st1" d="M93.24,80.45c0,0,3.09-0.33,4.68,1.24c2.34,2.3,2.08,12.08,2.08,18.31"/>
</svg>
