<?xml version="1.0" encoding="utf-8"?>
<!-- Generator: Adobe Illustrator 24.1.2, SVG Export Plug-In . SVG Version: 6.00 Build 0)  -->
<svg version="1.1" id="Layer_1" xmlns="http://www.w3.org/2000/svg" xmlns:xlink="http://www.w3.org/1999/xlink" x="0px" y="0px"
	 width="100px" height="100px" viewBox="0 0 100 100" style="enable-background:new 0 0 100 100;" xml:space="preserve">
<style type="text/css">
	.st0{fill:none;stroke:#000000;stroke-width:4;stroke-linecap:round;stroke-miterlimit:10;}
</style>
<path class="st0" d="M8.4,87.6c1.2-7.8-8.1-15.9-19.7-18.4c-4.2-0.9-9.4-4.6-11.8-7.7c-0.4-0.5-8.6-9.7-8.9-17.9
	c-0.2-4-0.1-17.4,0.4-20.1c1.1-6.7,12.8-11.1,19.2-4.2c2,2.1,2.8,6.2,3.5,9.1c1.6,7,3.3,6.4,8.3,9.4c4.6,2.7,11.1,3.2,15.2,7.8"/>
<path class="st0" d="M-0.8,37.3c0.7-18.6-1-27.2-2.9-45.7c-0.4-3.5-0.9-7.1-0.2-10.6c2.7-12.5,18.7-11.1,20-2.5
	c1,6.6,5.5,27,6.5,41.5c0.2,8.1,2.6,9.9,6.4,9.3c3-0.5,4.1-4.4,4-6.4c-0.4-16.3-3.4-57-3.4-62.4c0.1-9.2,17.4-13.1,20.8-3.1
	c2.1,6.1,2.7,44.8,5.6,62c1,5.7,5.3,3.5,5.8,1.5c1.2-5.4,0.6-11.7,0.6-18c0-9.5-0.7-17.2-0.6-27.8c0.1-12.5,19.1-15,21.2-4.2
	c0.6,14.2,0.9,29.3,1,43.5c0,3.1,0,6.3,1.3,9.1s6.9,2,7.8-0.6s0.8-5.2,0.8-7.9c0-7,0.5-26.2,1.1-29.7c1.5-8.4,17.7-7.9,18.9-0.4
	c0.6,3.6,2.5,19.8,1.9,27.8c-1.1,13.2-0.4,36.1-0.9,39.3c-1.1,6.1-5.1,11.4-10.1,15.1c-1,0.7-2.9,1.9-5.7,4.5
	c-2.7,2.6-9.3,7.3-9,16.6"/>
<path class="st0" d="M92.2,87.9c0,0-44.6,17.4-85.7-0.8"/>
<path class="st0" d="M100,107.3c0,0-51.8,18.1-100-0.8"/>
<path class="st0" d="M6.3,80.1c0,0-3.1-0.3-4.9,1.1C-1,83-0.4,95.2,0,100"/>
<path class="st0" d="M93.2,80.4c0,0,3.1-0.3,4.7,1.2c2.3,2.3,2.1,12.1,2.1,18.3"/>
</svg>
