<?xml version="1.0" encoding="utf-8"?>
<!-- Generator: Adobe Illustrator 24.1.2, SVG Export Plug-In . SVG Version: 6.00 Build 0)  -->
<svg version="1.1" id="Layer_2" xmlns="http://www.w3.org/2000/svg" xmlns:xlink="http://www.w3.org/1999/xlink" x="0px" y="0px"
	 viewBox="0 0 100 100" style="enable-background:new 0 0 100 100;" xml:space="preserve">
<style type="text/css">
	.st0{fill:none;stroke:#000000;stroke-miterlimit:10;}
</style>
<path class="st0" d="M0,100c0-7.85,0-3.93,0-11.79c0-0.91-1.35-4.5-2.35-5.17c-1.94-1.29-5.34-2.47-8.85-3.79
	c-4-1.5-9.36-4.61-11.82-7.69c-0.44-0.55-1.75-2.59-1.96-3.17c-3.08-8.41-6.64-16.46-6.96-24.7c-0.16-4.05-0.23-17.46,0.37-20.07
	c0.86-3.71,9.23-5.99,13.18-4.2c2.67,1.21,4.16,12.17,4.48,15.08c0.4,3.68,2.1,7.08,3.77,10.38c0.35,0.68,0.71,1.39,1.31,1.87
	c0.54,0.43,1.21,0.63,1.88,0.8c5.04,1.23,1.47,0.58,6.36,2.33c4.98,1.78,8.78,5.8,13.17,8.74"/>
<path class="st0" d="M-0.8,49.28c0.69-18.55-0.95-39.14-2.92-57.6c-0.37-3.51-0.8-7.07-0.17-10.54s3.77-8.63,6.91-10.24
	c5.37-2.77,11.79,1.19,13.1,7.76c1.31,6.57,5.54,27.02,6.52,41.5c0.25,8.07,2.57,9.62,6.34,9.26c1.22-0.12,2.52-0.26,3.48-1.03
	c1.49-1.2,1.58-3.41,1.53-5.33c-0.42-16.29-4.39-57.4-2.35-62.3s12.55-7.88,16.76-3.05s2.71,44.76,5.63,61.93
	c0.96,5.67,6.02,3.02,7.51,1.58c4.31-4.18,3.58-12.13,2.88-18.09c-1.07-9.22-0.9-17.19-0.61-27.8c0.28-10.61,15.1-15.01,17.16-4.17
	c0.62,14.15,0.95,29.31,0.98,43.48c0.01,3.1,0.02,6.32,1.31,9.14s8.9,1.95,9.74-0.56c0.85-2.51,0.78-5.21,0.78-7.86
	c0.01-7.03,0.58-14.07,1.71-21.01c0.57-3.5,1.53-7.36,4.51-9.28c2.62-1.68,10.23-2.28,12.78,0.25s2.51,19.81,1.87,27.74
	c-1.05,13.15-0.67,26.38,0.19,39.54c0.21,3.25,0.45,6.53-0.12,9.73c-1.09,6.1-5.11,11.4-10.06,15.13c-0.96,0.72-4.09,1.43-4.66,2.48
	c-0.62,1.16-0.35,10.82,0,20.07"/>
</svg>
