<?xml version="1.0" encoding="utf-8"?>
<!-- Generator: Adobe Illustrator 24.1.2, SVG Export Plug-In . SVG Version: 6.00 Build 0)  -->
<svg version="1.1" id="Layer_1" xmlns="http://www.w3.org/2000/svg" xmlns:xlink="http://www.w3.org/1999/xlink" x="0px" y="0px"
	 viewBox="0 0 100 100" style="enable-background:new 0 0 100 100;" xml:space="preserve">
<style type="text/css">
	.st0{fill:none;stroke:#000000;stroke-miterlimit:10;}
	.st1{fill:none;stroke:#000000;stroke-linecap:round;stroke-miterlimit:10;}
</style>
<line class="st0" x1="28.75" y1="17.93" x2="28.75" y2="72.01"/>
<line class="st0" x1="71.25" y1="17.93" x2="71.25" y2="72.01"/>
<path class="st1" d="M0,100l0.08-17.02c0,0,0.33-5.43,7.41-7.55c2.21-0.66,17.83-3.77,42.43-3.77c23.21,0,37.6,2.65,40.23,3.18
	c4.15,0.84,9.53,4.23,9.61,7.74C99.84,86.48,100,100,100,100"/>
<path class="st1" d="M17.67,18.67c0,0,4.34-0.27,10.47-0.54c6.06-3.4,14.75-4.7,22.1-4.7c6.76,0,14.82,1.23,20.77,4.64
	c7.15,0.29,12.13,0.6,12.13,0.6"/>
<path class="st1" d="M0.02,15.58C0.04,10.02,13.15,3.06,50.1,3.06s49.49,7.44,49.65,12.17"/>
<path class="st1" d="M71.33,27.75c10.69-0.41,16.18-2.05,18.81-2.58c4.15-0.84,9.53-2.87,9.61-6.37C99.84,14.88,100,0,100,0"/>
<path class="st1" d="M0,0l0.08,18.52c0,0,0.33,3.93,7.41,6.05c2.21,0.66,9.67,2.74,21.18,3.18"/>
</svg>
