<?xml version="1.0" encoding="utf-8"?>
<!-- Generator: Adobe Illustrator 24.1.0, SVG Export Plug-In . SVG Version: 6.00 Build 0)  -->
<svg version="1.1" id="Layer_1" xmlns="http://www.w3.org/2000/svg" xmlns:xlink="http://www.w3.org/1999/xlink" x="0px" y="0px"
	 viewBox="0 0 100 100" style="enable-background:new 0 0 100 100;" xml:space="preserve">
<style type="text/css">
	.st0{fill:none;stroke:#000000;stroke-linecap:round;stroke-miterlimit:10;}
	.st1{fill:none;stroke:#000000;stroke-width:0.9903;stroke-miterlimit:10;}
</style>
<path class="st0" d="M0,100c0,0,0-7.6,0-17.7c0-9.9-2-22.2-2-32C-2,38.7,0,28,0,19.6C0,7.6,0,0,0,0"/>
<path class="st0" d="M100,0c0,0,0,7.6,0,19.6c0,8.5,2,19.1,2,30.7c0,9.8-2,22.1-2,32c0,10.1,0,17.7,0,17.7"/>
<path class="st0" d="M0,15.6"/>
<path class="st0" d="M29.1,45.5c0,0,1.4-0.4,5.7,0.5s26.6,10.4,36.1,9"/>
<path class="st1" d="M75.1,38.3c0,0-9.1-1.5-16.6-1.8c-18-0.7-32.9,1.4-35,1.8"/>
<path class="st1" d="M23.7,60.5c0,0,8.9,2.3,16.4,3.2C58,66,73,65.2,75.1,65"/>
</svg>
