<?xml version="1.0" encoding="utf-8"?>
<!-- Generator: Adobe Illustrator 24.1.0, SVG Export Plug-In . SVG Version: 6.00 Build 0)  -->
<svg version="1.1" id="Layer_2_1_" xmlns="http://www.w3.org/2000/svg" xmlns:xlink="http://www.w3.org/1999/xlink" x="0px" y="0px"
	 viewBox="0 0 100 100" style="enable-background:new 0 0 100 100;" xml:space="preserve">
<style type="text/css">
	.st0{fill:none;stroke:#000000;stroke-miterlimit:10;}
</style>
<circle class="st0" cx="25.5" cy="31.1" r="4.7"/>
<circle class="st0" cx="71.1" cy="31.1" r="4.7"/>
<circle class="st0" cx="71.1" cy="31.1" r="14.6"/>
<path class="st0" d="M100,100c0,0,0-11.4-22.7-16.6c-0.3-0.1-0.9,0-0.9,2.3c0,1.2-1.1,2.5-2.5,2.5h-5.9c-1.4,0-2.5-1.1-2.5-2.5v-4.2
	v-0.7c0-1.4-1.1-2.5-2.5-2.5h-5.9c-1.4,0-2.5,1.1-2.5,2.5v0v2.8c0,1.4-1.1,2.5-2.5,2.5h-5.9c-1.4,0-2.5-1.1-2.5-2.5V81v-0.1
	c0-1.4-1.1-2.5-2.5-2.5h-5.9c-1.4,0-2.5,1.1-2.5,2.5v0.9v4c0,1.4-1.1,2.5-2.5,2.5h-5.9c-1.4,0-2.5-1.1-2.5-2.5c0-1.9-0.8-2-1.2-1.9
	C0,89.3,0,100,0,100"/>
<path class="st0" d="M97.2,70.8c-2.8-3.5-8.5-7.7-19.9-10.3c-0.3-0.1-0.9,0-0.9,2.3c0,1.2-1.1,2.5-2.5,2.5h-5.9
	c-1.4,0-2.5-1.1-2.5-2.5v-4.2V58c0-1.4-1.1-2.5-2.5-2.5h-5.9c-1.4,0-2.5,1.1-2.5,2.5v0v2.8c0,1.4-1.1,2.5-2.5,2.5h-5.9
	c-1.4,0-2.5-1.1-2.5-2.5v-2.8V58c0-1.4-1.1-2.5-2.5-2.5h-5.9c-1.4,0-2.5,1.1-2.5,2.5v0.9v4c0,1.4-1.1,2.5-2.5,2.5h-5.9
	c-1.4,0-2.5-1.1-2.5-2.5c0-1.9-0.8-2-1.2-1.9c-10.1,2.5-15.3,6.3-18.1,9.5"/>
<rect x="-1.6" y="30.8" class="st0" width="1.6" height="7.4"/>
<path class="st0" d="M-7,41.4h3.3c1.1,0,2-0.9,2-2v-9.6c0-1.1-0.9-2-2-2H-7c-1.1,0-2,0.9-2,2v9.6C-9,40.5-8.1,41.4-7,41.4z"/>
<path class="st0" d="M100,46.5h2.1c1.1,0,2-0.9,2-2v-5c0-1.1-0.9-2-2-2H100V46.5z"/>
<path class="st0" d="M100,57.7h2.1c1.1,0,2-0.9,2-2v-5c0-1.1-0.9-2-2-2H100V57.7z"/>
<path class="st0" d="M91,88.6c9-5.3,9-11.3,9-11.3V20.3c0,0,0-19.1-49.5-19.1C0,1.2,0,20.3,0,20.3v55.3v1.6c0,0,0,6.1,8.8,11.3"/>
<path class="st0" d="M82.2,84.8c11.8-5.1,11.8-12.3,11.8-12.3v-4.7"/>
<path class="st0" d="M5.9,67.9v4.6c0,0,0,7.3,11.9,12.4"/>
</svg>
