<?xml version="1.0" encoding="utf-8"?>
<!-- Generator: Adobe Illustrator 24.1.0, SVG Export Plug-In . SVG Version: 6.00 Build 0)  -->
<svg version="1.1" id="Layer_2_1_" xmlns="http://www.w3.org/2000/svg" xmlns:xlink="http://www.w3.org/1999/xlink" x="0px" y="0px"
	 viewBox="0 0 100 100" style="enable-background:new 0 0 100 100;" xml:space="preserve">
<style type="text/css">
	.st0{fill:none;stroke:#000000;stroke-miterlimit:10;}
</style>
<path class="st0" d="M100,100v-7.5"/>
<path class="st0" d="M0,92.5v7.5"/>
<path class="st0" d="M7.4,95.3c-28.7-9.6-48.2-22.7-48.2-50.5c0-31.6,14.1-56.2,90.8-56.2s90.8,24.6,90.8,56.2
	c0,31.3-20.9,42.2-51.2,51.5"/>
<g>
	<path class="st0" d="M38.3,39.9C38.3,66.4,27,71.5,10.4,74c-19.7,2.9-27.8-15.3-27.8-34.1S-4.9,5.8,10.4,5.8S38.3,13.4,38.3,39.9z"
		/>
	<path class="st0" d="M48.5,87.5c0,7.8-0.7,10.1-8.7,10.1c-6,0-5.7-4.5-5.7-10.1s6.5-10.1,10.7-10.1S48.5,79.6,48.5,87.5z"/>
	<path class="st0" d="M61.7,39.9C61.7,66.4,73,71.5,89.6,74c19.7,2.9,27.8-15.3,27.8-34.1S104.9,5.8,89.6,5.8S61.7,13.4,61.7,39.9z"
		/>
	<path class="st0" d="M51.5,87.5c0,7.8,0.7,10.1,8.7,10.1c6,0,5.7-4.5,5.7-10.1s-6.5-10.1-10.7-10.1S51.5,79.6,51.5,87.5z"/>
</g>
</svg>
