<?xml version="1.0" encoding="utf-8"?>
<!-- Generator: Adobe Illustrator 24.1.0, SVG Export Plug-In . SVG Version: 6.00 Build 0)  -->
<svg version="1.1" id="Layer_2_1_" xmlns="http://www.w3.org/2000/svg" xmlns:xlink="http://www.w3.org/1999/xlink" x="0px" y="0px"
	 viewBox="0 0 100 100" style="enable-background:new 0 0 100 100;" xml:space="preserve">
<style type="text/css">
	.st0{fill:none;stroke:#000000;stroke-miterlimit:10;}
</style>
<path class="st0" d="M100.6,100c0,0,0-18,0-24.3c0-1.2-0.4-2.5-1.3-3.9"/>
<g>
	<path class="st0" d="M1.5,72.4C0.4,73.7,0,74.9,0,75.7C0,79.6,0,100,0,100"/>
	<path class="st0" d="M40.7,60.5C40.7,60.5,40.7,60.5,40.7,60.5c-0.9,9.8-2.8,22.1-7.3,22.5c-7.1,0.5-9.2-6.3-12-13.4
		c-0.4-1-0.7-1.9-1.1-2.8"/>
</g>
<path class="st0" d="M79.5,65.4c0.6,8,1.8,18.3,4.4,19.4c3.7,1.5,5.3,0,5.3,0s4.6-3.8,8-10.1c3-5.5,12.7-21.8,2.8-23.8
	c-6.1-1.2-12.9-0.6-17,1.3C82.8,56.4,81.1,61.4,79.5,65.4z"/>
<path class="st0" d="M10.7,84.8c0,0-4.6-3.8-8-10.1c-3-5.5-12.7-21.8-2.8-23.8s21.6,0.8,21.1,6.5s-1.3,25.9-5,27.4
	C12.4,86.3,10.7,84.8,10.7,84.8z"/>
<path class="st0" d="M59.8,67.5c6.9-17.8,7.4-25.8-3.3-28.1s-17.4,1.7-16.8,8.5s1.6,32.5,8.1,33C54.9,81.5,57.1,74.6,59.8,67.5z"/>
<path class="st0" d="M59.8,67.5c-0.2,0.6-0.5,1.2-0.7,1.8c0.3,7.2,1.4,14,5.2,14.4c7,0.8,9.5-6.1,12.9-13.1
	c3-6.1,10.8-24.4,0.9-26.6c-5.1-1.1-10-0.3-13.7,1.6C65.7,50.1,63.9,57.2,59.8,67.5z"/>
</svg>
