<?xml version="1.0" encoding="utf-8"?>
<!-- Generator: Adobe Illustrator 24.1.0, SVG Export Plug-In . SVG Version: 6.00 Build 0)  -->
<svg version="1.1" id="Layer_2_1_" xmlns="http://www.w3.org/2000/svg" xmlns:xlink="http://www.w3.org/1999/xlink" x="0px" y="0px"
	 viewBox="0 0 100 100" style="enable-background:new 0 0 100 100;" xml:space="preserve">
<style type="text/css">
	.st0{fill:none;stroke:#000000;stroke-miterlimit:10;}
</style>
<path class="st0" d="M0,100V48.8C0,48.8,0,0,50,0s50,48.8,50,48.8V100"/>
<path class="st0" d="M17.2,74.6V37.4c0,0,0-8.9,4.8-8.9c4.7,0,4.7,8.9,4.7,8.9v37.2c0,0,0,8.4-4.7,8.4C17.2,83,17.2,74.6,17.2,74.6z
	"/>
<path class="st0" d="M43.9,74.6V37.4c0,0,0-8.9,4.8-8.9c4.7,0,4.7,8.9,4.7,8.9v37.2c0,0,0,8.4-4.7,8.4C43.9,83,43.9,74.6,43.9,74.6z
	"/>
<path class="st0" d="M28.9,100c0,0,3.2-5.1,11.6-5.1s11.6,5.1,11.6,5.1"/>
</svg>
