<?xml version="1.0" encoding="utf-8"?>
<!-- Generator: Adobe Illustrator 24.1.0, SVG Export Plug-In . SVG Version: 6.00 Build 0)  -->
<svg version="1.1" id="Layer_2_1_" xmlns="http://www.w3.org/2000/svg" xmlns:xlink="http://www.w3.org/1999/xlink" x="0px" y="0px"
	 viewBox="0 0 100 100" style="enable-background:new 0 0 100 100;" xml:space="preserve">
<style type="text/css">
	.st0{fill:none;stroke:#000000;stroke-miterlimit:10;}
</style>
<path class="st0" d="M39.2,77.2c0.7,0.5,0,13.1-7,13.1c-6.8,0-7.4-12.8-6.8-13.1s0,1.6,6.8,1.6C39.2,78.8,38.5,76.7,39.2,77.2z"/>
<path class="st0" d="M45.7,60.5v-24c0,0,0-7.7,4.7-7.7c4.8,0,4.8,7.7,4.8,7.7v24c0,0,0,4.6-2,6.9"/>
<path class="st0" d="M15.2,67.6C13,65.4,13,60.5,13,60.5v-24c0,0,0-7.7,4.7-7.7c4.8,0,4.8,7.7,4.8,7.7v24"/>
<path class="st0" d="M55.2,71.1c0,0-4.8-9.8-12.1-12"/>
<path class="st0" d="M25.2,59.1c0,0-7.2,2.7-11.6,11"/>
<path class="st0" d="M0,100V50C0,22.4,22.4,0,50,0s50,22.4,50,50v50"/>
</svg>
