<?xml version="1.0" encoding="utf-8"?>
<!-- Generator: Adobe Illustrator 24.1.0, SVG Export Plug-In . SVG Version: 6.00 Build 0)  -->
<svg version="1.1" id="Layer_2_1_" xmlns="http://www.w3.org/2000/svg" xmlns:xlink="http://www.w3.org/1999/xlink" x="0px" y="0px"
	 viewBox="0 0 100 100" style="enable-background:new 0 0 100 100;" xml:space="preserve">
<style type="text/css">
	.st0{fill:none;stroke:#000000;stroke-miterlimit:10;}
</style>
<path class="st0" d="M98.6,59.6c1.3,5.9,1.4,10.3,1.4,10.3v31.2"/>
<path class="st0" d="M0,101.1V69.9c0,0,0.5-14.3,8.2-27.3"/>
<path class="st0" d="M17.2,70.6v-14c0,0,0-8.1,4.8-8.1c4.7,0,4.7,8.1,4.7,8.1v14c0,0,0,7.7-4.7,7.7C17.2,78.3,17.2,70.6,17.2,70.6z"
	/>
<path class="st0" d="M43.9,70.6v-14c0,0,0-8.1,4.8-8.1c4.7,0,4.7,8.1,4.7,8.1v14c0,0,0,7.7-4.7,7.7C43.9,78.3,43.9,70.6,43.9,70.6z"
	/>
<path class="st0" d="M25.6,87.9c0,0,2.1-2.5,7.5-2.5s7.5,2.5,7.5,2.5"/>
<path class="st0" d="M5.4,43.2c0,0,54.3-15.2,94.9,17.7"/>
<path class="st0" d="M5.4,47.7c0,0-3.5-0.7-3.4-3.1c0.1-2.4,1.9-12.4,6-18.2s63-11.9,90,11.9c4.1,3.4,4.8,18,5.2,22.2
	c0.4,4.2-3.7,3.7-3.7,3.7"/>
<path class="st0" d="M15.5,23.3c0,0,8.8-16.4,21.7-21.1c17.3-6.3,54.6-8.4,59.1,34.5"/>
</svg>
