<?xml version="1.0" encoding="utf-8"?>
<!-- Generator: Adobe Illustrator 24.1.0, SVG Export Plug-In . SVG Version: 6.00 Build 0)  -->
<svg version="1.1" id="Layer_2_1_" xmlns="http://www.w3.org/2000/svg" xmlns:xlink="http://www.w3.org/1999/xlink" x="0px" y="0px"
	 viewBox="0 0 100 100" style="enable-background:new 0 0 100 100;" xml:space="preserve">
<style type="text/css">
	.st0{fill:none;stroke:#000000;stroke-miterlimit:10;}
</style>
<path class="st0" d="M0,100V58.8C0,58.8,0,10,50,10s50,48.8,50,48.8V100"/>
<path class="st0" d="M23.7,48.9v23.7c0,0,0,7.7-4.7,7.7c-4.8,0-4.8-7.7-4.8-7.7v-24c0,0,0-4.6,2-6.9"/>
<path class="st0" d="M54.2,41.5c2.2,2.2,2.2,7.1,2.2,7.1v24c0,0,0,7.7-4.7,7.7c-4.8,0-4.8-7.7-4.8-7.7v-24"/>
<path class="st0" d="M46.9,88.8c0,0-3.2-1.4-11.6-1.4s-11.6,1.4-11.6,1.4"/>
<path class="st0" d="M14.2,38c0,0,4.8,9.8,12.1,12"/>
<path class="st0" d="M44.2,50c0,0,7.1-2.8,11.6-11"/>
</svg>
